<?xml version="1.0" standalone="no"?><!DOCTYPE svg PUBLIC "-//W3C//DTD SVG 1.1//EN" "http://www.w3.org/Graphics/SVG/1.1/DTD/svg11.dtd"><svg t="1691824224180" class="icon" viewBox="0 0 1024 1024" version="1.1" xmlns="http://www.w3.org/2000/svg" p-id="1668" xmlns:xlink="http://www.w3.org/1999/xlink" width="200" height="200"><path d="M739.915821 589.700012c16.81709-0.848983 15.552647-29.479582-1.174125-29.587962-76.444601-0.41546-150.233873 19.165341-224.023144 37.770714 24.060541-7.911799 48.229463-14.432712 70.700418-20.267212 66.419376-17.28674 131.429801-38.402935 194.778388-64.902045 12.879253-5.36485 3.522376-23.374129-9.085925-19.129214-28.612535 9.591702-60.458431 8.670465-90.082521 13.511475-39.107411 6.376405-77.907742 14.956552-116.509376 23.627018-18.406675 4.136534-36.723033 8.598211-55.003263 13.186332 18.948579-8.02018 38.059729-15.697155 57.496022-22.579336 35.187638-12.481857 70.826862-23.590891 105.869993-36.470144 33.21872-12.192842 75.035651-29.515709 111.072271-31.466564 12.517984-0.650285 11.524493-21.621973-0.867046-21.947114-74.006033-1.950855-153.521424 17.7022-225.486285 33.218719-26.155903 5.653866-52.076981 12.39154-77.943869 19.47242 12.228969-5.003581 24.530191-9.772337 36.993984-13.854681 40.751186-13.421158 81.068849-25.270793 122.7774-35.314082 36.108875-8.670465 77.040696-24.620508 114.377886-23.916033 0 0 0-0.018063 0-0.036127 1.047681-0.05419 2.059235-0.036127 3.106917-0.108381 13.150206-0.9393 12.247032-23.627018-0.903174-23.193494-1.065745 0.036127-2.095362 0.162571-3.161107 0.216761 0-0.036127 0-0.072254 0-0.10838-31.520754 1.372824-61.506112-4.01009-93.044929-0.379333-34.428972 3.9559-68.912135 6.936372-103.250789 11.50643-50.523523 6.773801-99.023938 21.549719-148.572034 31.285928 34.826368-18.207977 69.995943-35.621161 107.134435-49.782921 69.056642-26.336538 145.699942-37.499762 217.845438-52.691139 14.739791-3.106917 10.747764-24.385683-4.046217-22.832225-32.116848 3.323678-64.486585 0.559968-96.729877 2.275997-34.808305 1.878601-69.490166 8.959481-103.810757 14.703664-24.963714 4.172661-50.306761 7.044753-75.505301 10.531002 22.055496-9.73621 44.30969-18.749881 64.215633-28.359646 55.689675-26.842315 112.481222-41.29309 172.343558-53.793011 8.092434-1.697966 10.982589-15.335885 1.589586-17.575756-44.797403-10.458749-80.599199-10.169733-126.642982-4.190724-28.955741 3.757202-57.766974 9.085925-86.632398 13.963061 30.762088-13.041825 61.488049-26.029459 90.44379-42.304644 4.588121-2.565013 1.390887-8.724656-3.377869-7.171198-57.333451 18.695691-110.801319 35.169574-165.949091 60.566812-9.356877 4.281042-7.731165 21.658099 3.739138 21.18845 75.740126-3.07079 153.196281-27.257775 229.749264-28.233203-42.105946 10.783891-84.175766 21.423274-125.468856 36.072748-50.234508 17.792517-112.354778 39.866076-154.243963 73.608637-13.926935 11.217414 0.993491 29.660216 15.823599 24.530191 46.061846-15.93198 96.63956-21.71229 145.501243-29.840851-67.918644 21.820671-131.32142 56.123199-193.694579 90.100584-12.283159 6.683484-11.614811 30.545326 5.274533 29.949231 71.477147-2.510822 136.650144-27.673235 206.013865-41.834994 16.943534-3.468186 34.085766-5.997072 51.264126-8.200815-16.889344 4.299106-33.670306 9.085925-50.523523 14.541093-79.985041 25.830761-153.250472 64.522712-229.550566 99.836793-15.733282 7.261515-7.96599 34.139957 9.447195 29.587963 79.659899-20.791053 156.700594-50.180317 236.378556-70.953307 14.486902-3.775265 29.118312-6.990563 43.803913-10.007162-3.54044 1.137999-7.117007 2.257934-10.657447 3.395932-80.021168 25.812697-155.291644 61.325478-230.923389 97.759495-15.335885 7.369895-7.947926 32.893577 9.230433 28.973805 35.386336-8.110498 70.321085-17.973152 105.18358-28.106758-28.052568 11.018716-54.967136 24.457937-77.745171 41.29309-12.843127 9.483321-1.571522 28.413837 12.44573 26.571363 72.79578-9.591702 144.056166-34.067703 216.436487-49.819048-29.154439 11.939953-58.182434 31.141421-83.380973 49.62035-10.368431 7.60472 2.510822 22.543209 12.843126 15.155251 21.71229-15.51652 47.940447-31.03304 73.662827-41.202773 2.890155 1.679903 6.484785 2.059235 10.440686-0.162572 17.810581-10.043289 37.264937-14.396585 56.538658-20.754926C704.095962 600.809046 721.220131 590.639313 739.915821 589.700012zM773.712572 752.813138c-0.596094-13.547602-17.214486-10.512939-25.216603-7.153133-11.92189 4.985517-24.313429 7.875673-35.855986 13.872744-11.09097 5.762247-6.123516 25.108222 6.918309 21.748417 15.480393-3.992027 32.983895-6.051262 46.910829-14.414649C772.050733 763.524776 774.001588 759.189543 773.712572 752.813138zM820.424703 836.356683c-4.642312-10.603256-21.929051-11.470303-31.954277-13.403094-9.952971-1.896664-23.265748-2.023109-31.08723 5.31066-3.865582 3.630757-2.023109 10.169733 3.395932 10.820018 9.880718 1.192189 19.020833 3.775265 28.341583 7.243451 9.212369 3.413996 19.978197 8.90529 28.702853 2.077299C821.472384 845.569052 822.212987 840.420964 820.424703 836.356683zM389.520648 840.222265c5.599675-3.088853 6.466722-12.716682-0.686412-14.812044-16.257122-4.732629-56.430277-15.877789-64.034998 6.900245-1.788283 5.328723 0.794793 10.368431 5.798374 12.590238 8.345323 3.703011 18.334421-0.343206 27.221647-0.108381C369.37988 845.063275 379.025772 845.966449 389.520648 840.222265zM402.056695 872.881017c-12.138651 6.864118-23.645081 15.209441-37.373317 18.894389-5.039708 1.35476-7.947926 4.244915-9.519448 8.652402-0.41546 0.686412-0.776729 1.408951-1.354761 2.023108-4.624248 5.093898-1.986982 13.981125 3.088854 17.557692 6.159643 4.317169 12.933444 1.986982 17.557692-3.088853 1.029618-1.137999 1.589585-2.456632 2.257933-3.721074 13.836617-7.351832 30.744024-15.498456 35.422463-31.105294C413.852141 876.403394 408.107957 869.430895 402.056695 872.881017zM249.131366 860.597858c7.117007-0.650285-1.35476-0.578031-3.016599-0.451586 1.968918-0.144508-4.046217 0.108381-4.154598 0.108381-5.328723 0.05419-10.62132-0.523841-15.950044-0.578031-10.296177-0.090317-25.487555-1.986982-29.985358 9.971035-2.059235 5.545485 0.090317 11.343859 4.642311 14.848171 6.990563 5.382914 21.748417 1.156062 30.021486 0.307079 5.057771-0.541904 10.278114-1.82441 15.173314-3.215297 5.419041-1.571522 9.7904-5.455168 11.542557-8.002117C261.721604 867.245215 256.176119 859.947574 249.131366 860.597858zM679.601898 878.300058c-8.959481-2.510822-17.846707-5.979008-27.059077-6.466722-5.942881-0.343206-10.169733 5.509358-7.731164 11.018716 4.064281 9.103988 12.174778 12.463794 21.206512 15.87779 9.754273 3.630757 20.953624 10.458749 31.267865 11.434176 10.549066 1.029618 15.751345-11.000653 9.880718-18.912452C701.11549 883.159131 688.814267 880.883134 679.601898 878.300058zM403.17663 119.634356c5.021644-1.264443 9.7904-1.318633 14.360458-0.397396-2.23987 3.937836-4.244915 8.002117-6.19577 12.319285-2.257934 4.949391 1.968918 10.169733 6.809928 10.838082 11.650938 1.589585 23.518637 0.83092 35.061194 2.565013-10.133606 12.247032-27.96225 19.869816-39.197728 30.165993-5.111962 4.696502-1.499268 15.51652 6.231897 13.27665 20.754926-5.979008 42.015629-10.476812 63.493094-12.680556-14.884299 11.181287-30.14793 21.820671-45.863148 31.845896-6.069326 3.865582-4.082344 14.775918 4.136534 13.023762 20.194958-4.335233 37.572016-18.930516 58.670148-19.00277 5.419041 0 6.394468-7.984053 0.830919-8.48983-6.791864-0.614158-13.059888 0.072254-19.129214 1.318633 9.826527-6.936372 19.52661-14.035315 28.79317-21.76648 4.389423-3.684948 2.456632-12.590238-3.937836-12.536048-18.478929 0.180635-36.632715 2.131489-54.605867 5.346787 8.236942-6.213833 15.606837-13.204396 20.032387-22.976733 1.661839-3.684948-0.740602-8.652402-4.533931-9.84459C456.102595 128.810598 443.729119 128.6119 431.355642 127.600346c1.517331-2.691457 3.161107-5.292596 5.184216-7.803419 3.432059-4.317169 0.650285-10.241987-3.829456-12.247032-12.608301-5.635802-23.5367-8.43564-36.379826-2.348251C387.009826 109.627194 393.729436 123.626383 403.17663 119.634356z" fill="#1ca538" p-id="1669"></path><path d="M469.577943 708.810528c-1.390887-0.704475 39.125474 24.512128 48.157208 49.060382 9.049798 24.494064-16.780963 115.732647-17.648009 122.181305-0.867047 6.448658-2.565013 13.348904 4.317169 6.448658 6.900245-6.882182 28.395773-33.977385 38.276491-33.543862 9.898781 0.41546 42.575597 30.545326 42.160137 27.095204-0.397396-3.432059-21.477465-53.341424-26.66168-109.283988 2.583076-15.064933 18.930516-58.092117 59.374623-96.784068-14.21595 7.731165-58.959163 61.072589-70.140451 66.256805C536.232144 745.352926 488.056872 718.257722 469.577943 708.810528z" fill="#65320b" p-id="1670"></path></svg>